<svg width="32" height="32" viewBox="0 0 32 32" fill="none" xmlns="http://www.w3.org/2000/svg">
<path d="M0 16C0 7.16344 7.16344 0 16 0C24.8366 0 32 7.16344 32 16C32 24.8366 24.8366 32 16 32C7.16344 32 0 24.8366 0 16Z"/>
<path d="M17.9223 14.6969C17.5444 15.056 17.1798 15.4025 16.8152 15.749C16.5335 16.0167 16.2501 16.2824 15.9708 16.5525C15.8048 16.7127 15.6146 16.7613 15.4043 16.6713C15.1959 16.582 15.1126 16.4072 15.1126 16.1838C15.1135 13.6425 15.1131 11.1011 15.1135 8.55976C15.1135 8.22947 15.3159 8.02611 15.6484 8.02587C18.3126 8.02515 20.9771 8.02563 23.6413 8.02539C23.8566 8.02539 24.0311 8.09516 24.1211 8.30567C24.2064 8.50523 24.1592 8.70764 23.9821 8.87838C23.4144 9.42633 22.8445 9.97189 22.2751 10.5179C22.2468 10.5451 22.2144 10.5677 22.1863 10.5903C22.3885 10.768 22.5852 10.9273 22.7666 11.1023C23.7854 12.0858 24.5279 13.245 24.8146 14.6388C25.403 17.4988 24.5981 19.9118 22.3659 21.8126C21.1502 22.848 19.7209 23.3945 18.1323 23.5374C17.1246 23.6279 16.1394 23.5143 15.1702 23.2378C14.9102 23.1638 14.7756 22.9633 14.8009 22.7023C14.8242 22.4603 14.999 22.3003 15.2769 22.2732C15.8501 22.217 16.4014 22.0762 16.9155 21.8171C18.16 21.1904 19.027 20.2395 19.3216 18.8521C19.6359 17.3717 19.2385 16.0779 18.1959 14.982C18.1088 14.8903 18.0209 14.7993 17.9223 14.6969ZM17.5925 22.5992C17.5951 22.6056 17.5977 22.612 17.6004 22.6182C17.6187 22.6182 17.637 22.6189 17.6554 22.6182C19.2416 22.5573 20.6668 22.0541 21.8639 21.003C23.6249 19.4565 24.324 17.5022 23.9237 15.1939C23.618 13.431 22.6392 12.0846 21.1759 11.0787C20.8563 10.8592 20.8197 10.5248 21.0959 10.2574C21.5003 9.86592 21.9058 9.47539 22.3128 9.08628C22.3428 9.05746 22.3871 9.04365 22.4247 9.02293C22.4133 9.0109 22.4022 8.99886 22.3908 8.98663L22.3885 8.98412H16.0715V15.0541C16.1065 15.0239 16.1304 15.0048 16.1525 14.9839C16.5809 14.5774 17.0093 14.1707 17.4375 13.7637C17.7077 13.5067 17.9449 13.4934 18.2421 13.7156C18.6191 13.9973 18.9584 14.319 19.2447 14.6917C20.3803 16.1705 20.6966 17.8079 20.1308 19.588C19.7176 20.8877 18.8689 21.8493 17.6982 22.5346C17.6627 22.5553 17.6277 22.5775 17.5925 22.5992Z" fill="#5479DD"/>
<path d="M17.5925 22.5992L17.6004 22.6182C17.6187 22.6182 17.637 22.6189 17.6554 22.6182C19.2416 22.5573 20.6668 22.0541 21.8639 21.003C23.6249 19.4565 24.324 17.5022 23.9237 15.1939C23.618 13.431 22.6392 12.0846 21.1759 11.0787C20.8563 10.8592 20.8197 10.5248 21.0959 10.2574C21.5003 9.86592 21.9058 9.47539 22.3128 9.08628C22.3428 9.05746 22.3871 9.04365 22.4247 9.02293C22.4133 9.0109 22.4022 8.99886 22.3908 8.98663L22.3885 8.98412H16.0715V15.0541C16.1065 15.0239 16.1304 15.0048 16.1525 14.9839C16.5809 14.5774 17.0093 14.1707 17.4375 13.7637C17.7077 13.5067 17.9449 13.4934 18.2421 13.7156C18.6191 13.9973 18.9584 14.319 19.2447 14.6917C20.3803 16.1705 20.6966 17.8079 20.1308 19.588C19.7176 20.8877 18.8689 21.8493 17.6982 22.5346C17.6627 22.5553 17.6277 22.5775 17.5925 22.5992Z" fill="#5479DD"/>
<path d="M7.56402 17.7479H9.91915C10.7162 17.7479 11.5125 17.7482 12.3095 17.7474C12.6489 17.7472 12.8489 17.5467 12.8489 17.2069C12.8496 16.2672 12.8496 15.3275 12.8489 14.3879C12.8487 14.0483 12.6486 13.848 12.3091 13.848C10.7193 13.8475 9.12927 13.8475 7.53949 13.848C7.20039 13.8483 7.00036 14.0488 7.00036 14.3886C6.99988 15.3204 6.99988 16.252 7.00036 17.184C7.00036 17.5562 7.19205 17.7479 7.56402 17.7479Z" fill="#5479DD"/>
<path d="M9.91748 11.8979C9.1245 11.8979 8.33152 11.8979 7.53878 11.8979C7.19777 11.8979 7.0006 11.7005 7.00036 11.3592C6.99988 10.4234 6.99988 9.48774 7.00036 8.55211C7.00036 8.19706 7.19705 8.0006 7.55306 8.00036C9.13498 7.99988 10.7169 7.99988 12.2988 8.00036C12.6527 8.00036 12.8491 8.19848 12.8494 8.55426C12.8496 9.48583 12.8499 10.4176 12.8494 11.3492C12.8494 11.7062 12.656 11.8974 12.2967 11.8976C11.5037 11.8979 10.7102 11.8979 9.91748 11.8979ZM11.868 8.98289H7.98146V10.9153H11.868V8.98289Z" fill="#5479DD"/>
<path d="M11.868 8.98289H7.98146V10.9153H11.868V8.98289Z" fill="#5479DD"/>
<path d="M9.93046 19.6973C10.7234 19.6973 11.5164 19.6973 12.3092 19.6973C12.6516 19.6973 12.849 19.8928 12.8493 20.2343C12.85 21.1777 12.85 22.1215 12.8493 23.065C12.849 23.3881 12.6452 23.5939 12.3218 23.5941C10.7239 23.5953 9.12629 23.5953 7.52842 23.5941C7.20337 23.5939 7.00119 23.3893 7.00071 23.0657C6.99976 22.1181 6.99976 21.1706 7.00071 20.2231C7.00095 19.8966 7.20146 19.6977 7.5277 19.6975C8.32854 19.697 9.12962 19.6973 9.93046 19.6973ZM11.8667 22.6146V20.6817H7.98349V22.6146H11.8667Z" fill="#5479DD"/>
<path d="M11.8667 22.6146V20.6817H7.98349V22.6146H11.8667Z" fill="#5479DD"/>
<defs>
<clipPath id="clip0_1502_13333">
<rect width="32" height="32" fill="white" transform="translate(7 8)"/>
</clipPath>
</defs>
</svg>
