<svg width="36" height="36" viewBox="0 0 36 36" fill="none" xmlns="http://www.w3.org/2000/svg">
<rect width="36" height="36" rx="18" fill="#a1a1a1" fill-opacity="0.15"/>
<path fill-rule="evenodd" clip-rule="evenodd" d="M15.1348 22.3023V26.7733L15.1079 26.7822C15.103 27.4562 14.5512 28 13.8723 28H11.9562C10.0474 28 8.5 26.4639 8.5 24.5689V15.8669C8.51755 15.1206 8.87274 14.422 9.46701 13.9647L15.9854 8.74698C17.1111 7.7785 18.7737 7.74856 19.934 8.67587L26.6046 13.9647C27.1721 14.4358 27.5 15.1325 27.5 15.8669V15.8703C26.1886 14.7067 24.4626 14 22.5714 14C18.4687 14 15.1429 17.3259 15.1429 21.4286C15.1429 21.6423 15.1519 21.8539 15.1696 22.063C15.1468 22.1174 15.1348 22.1951 15.1348 22.3023Z" fill="#a2a2b0"/>
<path d="M23.4755 16.6089C23.4799 15.7957 22.7992 15.1194 21.9784 15.1432C21.209 15.1655 20.5862 15.8264 20.5918 16.645C20.5974 17.4416 21.257 18.111 22.0267 18.1011C22.846 18.0894 23.4818 17.4344 23.4755 16.6089Z" fill="#a2a2b0"/>
<path fill-rule="evenodd" clip-rule="evenodd" d="M20.1843 27.1595C20.0776 27.4678 19.9176 27.6965 19.6025 27.7895L19.3366 27.7898C19.3334 27.7877 19.3303 27.7852 19.3272 27.7827C19.3204 27.7774 19.3137 27.7721 19.3063 27.7707C18.844 27.6824 18.6154 27.258 18.7972 26.7668C19.1499 25.8147 19.4852 24.8559 19.8205 23.8971C19.8647 23.7706 19.909 23.6441 19.9533 23.5176C19.9821 23.4351 20.0132 23.3532 20.0442 23.2713C20.1693 22.9418 20.2945 22.6118 20.273 22.242C20.2647 22.0992 20.2669 21.9567 20.269 21.8127C20.27 21.7465 20.2711 21.68 20.2711 21.6129C20.263 21.6169 20.2538 21.6213 20.244 21.6261C20.2232 21.636 20.1993 21.6475 20.1758 21.6599C20.0564 21.7233 19.937 21.7868 19.8177 21.8503C19.4597 22.041 19.1016 22.2316 18.7407 22.4172C18.6481 22.4629 18.5461 22.4851 18.4433 22.4818C18.2494 22.4743 18.1604 22.3197 18.0797 22.1625C17.9316 21.875 17.9885 21.6607 18.2627 21.4988C18.7181 21.229 19.1744 20.9605 19.6316 20.6934C19.7147 20.6474 19.7879 20.5847 19.8464 20.5089C19.905 20.4331 19.9478 20.3459 19.9722 20.2526C20.0791 19.8654 20.1919 19.4793 20.3047 19.0935C20.3366 18.9843 20.3685 18.8751 20.4003 18.7659C20.4759 18.5058 20.631 18.3752 20.8671 18.3853L20.931 18.388C21.5371 18.4136 22.1434 18.4391 22.7485 18.4781C22.8715 18.4878 22.9896 18.5318 23.0898 18.6053C23.5429 18.9475 23.9889 19.2997 24.4301 19.6575C24.6092 19.803 24.6837 20.0079 24.632 20.2405C24.461 21.0123 24.2867 21.7834 24.1089 22.554C24.0911 22.6255 24.0598 22.6927 24.0168 22.752C23.8895 22.9316 23.7048 22.9423 23.5077 22.924C23.1979 22.8953 23.0491 22.7062 23.1124 22.3976L23.1255 22.3336C23.233 21.8082 23.3402 21.2851 23.4578 20.7619C23.5184 20.4917 23.4721 20.3625 23.1405 20.1799C23.1379 20.2385 23.1353 20.2969 23.1327 20.3551C23.1237 20.5571 23.1148 20.7569 23.1063 20.9567C23.1013 21.0753 23.0964 21.194 23.0914 21.3126C23.0681 21.868 23.0448 22.4235 23.0239 22.9792C23.0215 23.0397 23.0321 23.1001 23.0549 23.1561C23.1507 23.38 23.2488 23.6025 23.3469 23.825C23.407 23.9616 23.4672 24.0982 23.5269 24.235C23.6341 24.4847 23.8065 24.6996 24.0253 24.8561C24.4227 25.1437 24.8176 25.4346 25.2099 25.7289C25.456 25.9123 25.5226 26.1862 25.4 26.4713C25.366 26.5499 25.3306 26.6281 25.2951 26.7061C25.2883 26.7211 25.2815 26.7362 25.2747 26.7512C25.1105 27.113 24.8514 27.1803 24.5394 26.9425C24.3818 26.8226 24.2244 26.7026 24.0671 26.5827C23.7116 26.3118 23.3564 26.0411 22.9999 25.772C22.7357 25.5746 22.5212 25.316 22.374 25.0175C22.168 24.6042 21.9581 24.1934 21.7481 23.7825C21.7014 23.691 21.6547 23.5995 21.608 23.508C21.5833 23.467 21.5563 23.4275 21.5272 23.3897C21.5189 23.4089 21.5114 23.4257 21.5046 23.4409C21.4896 23.4745 21.4782 23.5 21.4691 23.5258C21.3686 23.8085 21.2679 24.0912 21.1671 24.3738C20.8366 25.3015 20.5061 26.229 20.1843 27.1595Z" fill="#a2a2b0"/>
</svg>
