<svg width="20" height="20" viewBox="0 0 20 20" fill="none" xmlns="http://www.w3.org/2000/svg">
<path d="M14.8444 1.99219C14.61 1.83594 14.2975 1.91406 14.1803 2.14844L13.7115 2.96875C13.5944 3.16406 13.6725 3.4375 13.8678 3.59375C16.0553 4.96094 17.5006 7.42188 17.5006 10.1562C17.5006 14.4922 13.985 17.9688 9.68811 17.9688C5.35217 17.9688 1.87561 14.4922 1.87561 10.1562C1.87561 7.42188 3.28186 4.96094 5.46936 3.59375C5.66467 3.4375 5.7428 3.16406 5.62561 2.96875L5.15686 2.14844C5.03967 1.91406 4.72717 1.83594 4.4928 1.99219C1.79749 3.71094 -0.038451 6.71875 0.000611504 10.1953C0.000611504 15.5078 4.37561 19.8828 9.68811 19.8438C15.0397 19.8438 19.3756 15.5078 19.3756 10.1562C19.3756 6.71875 17.5397 3.71094 14.8444 1.99219ZM10.6256 10.9375V0.625C10.6256 0.390625 10.3912 0.15625 10.1569 0.15625H9.21936C8.94592 0.15625 8.75061 0.390625 8.75061 0.625V10.9375C8.75061 11.2109 8.94592 11.4062 9.21936 11.4062H10.1569C10.3912 11.4062 10.6256 11.2109 10.6256 10.9375Z" fill="#a2a2b0"/>
</svg>
