<svg width="8" height="14" viewBox="0 0 8 14" fill="none" xmlns="http://www.w3.org/2000/svg">
<path d="M8 6.74658C8 7.00293 7.90479 7.22266 7.69971 7.41309L2.00146 12.9941C1.84033 13.1553 1.63525 13.2432 1.39355 13.2432C0.910156 13.2432 0.521973 12.8623 0.521973 12.3716C0.521973 12.1299 0.624512 11.9175 0.785645 11.749L5.91992 6.74658L0.785645 1.74414C0.624512 1.57568 0.521973 1.35596 0.521973 1.12158C0.521973 0.630859 0.910156 0.25 1.39355 0.25C1.63525 0.25 1.84033 0.337891 2.00146 0.499023L7.69971 6.07275C7.90479 6.27051 8 6.49023 8 6.74658Z" fill="black" fill-opacity="0.15"/>
</svg>
