<svg width="206" height="207" viewBox="0 0 206 207" fill="none" xmlns="http://www.w3.org/2000/svg">
<circle cx="102.5" cy="103.5" r="98.5" fill="white"/>
<path d="M146.958 177.502C146.682 177.024 146.07 176.86 145.592 177.136C145.114 177.412 144.95 178.024 145.226 178.502L146.958 177.502ZM149.226 185.43C149.502 185.908 150.114 186.072 150.592 185.796C151.07 185.52 151.234 184.908 150.958 184.43L149.226 185.43ZM145.226 178.502L149.226 185.43L150.958 184.43L146.958 177.502L145.226 178.502Z" fill="#E7E5EF"/>
<path d="M56.4578 20.752C56.1817 20.2737 55.5701 20.1098 55.0918 20.3859C54.6135 20.6621 54.4496 21.2737 54.7258 21.752L56.4578 20.752ZM58.7258 28.6802C59.0019 29.1584 59.6135 29.3223 60.0918 29.0462C60.5701 28.77 60.734 28.1584 60.4578 27.6802L58.7258 28.6802ZM54.7258 21.752L58.7258 28.6802L60.4578 27.6802L56.4578 20.752L54.7258 21.752Z" fill="#E7E5EF"/>
<path d="M178.161 145.45C177.683 145.174 177.071 145.338 176.795 145.816C176.519 146.295 176.683 146.906 177.161 147.182L178.161 145.45ZM184.089 151.182C184.568 151.459 185.179 151.295 185.455 150.816C185.732 150.338 185.568 149.727 185.089 149.45L184.089 151.182ZM177.161 147.182L184.089 151.182L185.089 149.45L178.161 145.45L177.161 147.182Z" fill="#E7E5EF"/>
<path d="M21.4102 54.9504C20.9319 54.6742 20.3203 54.8381 20.0441 55.3164C19.768 55.7947 19.9319 56.4063 20.4102 56.6824L21.4102 54.9504ZM27.3384 60.6824C27.8167 60.9586 28.4282 60.7947 28.7044 60.3164C28.9805 59.8381 28.8167 59.2265 28.3384 58.9504L27.3384 60.6824ZM20.4102 56.6824L27.3384 60.6824L28.3384 58.9504L21.4102 54.9504L20.4102 56.6824Z" fill="#E7E5EF"/>
<path d="M189 102C188.448 102 188 102.448 188 103C188 103.552 188.448 104 189 104L189 102ZM197 104C197.552 104 198 103.552 198 103C198 102.448 197.552 102 197 102L197 104ZM189 104L197 104L197 102L189 102L189 104Z" fill="#E7E5EF"/>
<path d="M8 102C7.44772 102 7 102.448 7 103C7 103.552 7.44772 104 8 104L8 102ZM16 104C16.5523 104 17 103.552 17 103C17 102.448 16.5523 102 16 102L16 104ZM8 104L16 104L16 102L8 102L8 104Z" fill="#E7E5EF"/>
<path opacity="0.8" d="M27.7471 147.024C28.2254 146.748 28.3892 146.136 28.1131 145.658C27.837 145.18 27.2254 145.016 26.7471 145.292L27.7471 147.024ZM19.8189 149.292C19.3406 149.568 19.1767 150.18 19.4528 150.658C19.729 151.136 20.3406 151.3 20.8189 151.024L19.8189 149.292ZM26.7471 145.292L19.8189 149.292L20.8189 151.024L27.7471 147.024L26.7471 145.292Z" fill="#E7E5EF"/>
<path d="M184.498 56.5242C184.976 56.2481 185.14 55.6365 184.864 55.1582C184.588 54.6799 183.976 54.516 183.498 54.7922L184.498 56.5242ZM176.57 58.7922C176.092 59.0683 175.928 59.6799 176.204 60.1582C176.48 60.6365 177.092 60.8004 177.57 60.5242L176.57 58.7922ZM183.498 54.7922L176.57 58.7922L177.57 60.5242L184.498 56.5242L183.498 54.7922Z" fill="#E7E5EF"/>
<path opacity="0.8" d="M59.6834 178.66C59.9596 178.182 59.7957 177.57 59.3174 177.294C58.8391 177.018 58.2275 177.182 57.9514 177.66L59.6834 178.66ZM53.9514 184.588C53.6752 185.067 53.8391 185.678 54.3174 185.954C54.7957 186.231 55.4073 186.067 55.6834 185.588L53.9514 184.588ZM57.9514 177.66L53.9514 184.588L55.6834 185.588L59.6834 178.66L57.9514 177.66Z" fill="#E7E5EF"/>
<path d="M150.183 21.9102C150.46 21.4319 150.296 20.8203 149.817 20.5441C149.339 20.268 148.727 20.4319 148.451 20.9102L150.183 21.9102ZM144.451 27.8384C144.175 28.3167 144.339 28.9282 144.817 29.2044C145.296 29.4805 145.907 29.3167 146.183 28.8384L144.451 27.8384ZM148.451 20.9102L144.451 27.8384L146.183 28.8384L150.183 21.9102L148.451 20.9102Z" fill="#E7E5EF"/>
<path opacity="0.8" d="M103 190C103 189.448 102.552 189 102 189C101.448 189 101 189.448 101 190H103ZM101 198C101 198.552 101.448 199 102 199C102.552 199 103 198.552 103 198H101ZM101 190V198H103V190H101Z" fill="#E7E5EF"/>
<path d="M103 9C103 8.44772 102.552 8 102 8C101.448 8 101 8.44772 101 9H103ZM101 17C101 17.5523 101.448 18 102 18C102.552 18 103 17.5523 103 17H101ZM101 9V17H103V9H101Z" fill="#E7E5EF"/>
<path d="M127.685 191.974C127.542 191.44 126.993 191.124 126.46 191.266C125.926 191.409 125.61 191.958 125.753 192.491L127.685 191.974ZM126.27 194.423C126.413 194.957 126.962 195.273 127.495 195.13C128.029 194.987 128.345 194.439 128.202 193.905L126.27 194.423ZM125.753 192.491L126.27 194.423L128.202 193.905L127.685 191.974L125.753 192.491Z" fill="#E7E5EF"/>
<path d="M79.3224 11.5615C79.1794 11.028 78.6311 10.7114 78.0976 10.8544C77.5642 10.9973 77.2476 11.5457 77.3905 12.0791L79.3224 11.5615ZM77.9082 14.011C78.0511 14.5444 78.5994 14.861 79.1329 14.7181C79.6664 14.5751 79.983 14.0268 79.84 13.4933L77.9082 14.011ZM77.3905 12.0791L77.9082 14.011L79.84 13.4933L79.3224 11.5615L77.3905 12.0791Z" fill="#E7E5EF"/>
<path d="M79.8595 192.495C80.0024 191.962 79.6858 191.413 79.1524 191.27C78.6189 191.127 78.0706 191.444 77.9276 191.978L79.8595 192.495ZM77.41 193.909C77.267 194.443 77.5836 194.991 78.1171 195.134C78.6506 195.277 79.1989 194.96 79.3418 194.427L77.41 193.909ZM77.9276 191.978L77.41 193.909L79.3418 194.427L79.8595 192.495L77.9276 191.978Z" fill="#E7E5EF"/>
<path d="M128.183 12.0733C128.326 11.5398 128.009 10.9915 127.476 10.8485C126.942 10.7056 126.394 11.0222 126.251 11.5556L128.183 12.0733ZM125.733 13.4875C125.59 14.021 125.907 14.5693 126.44 14.7122C126.974 14.8552 127.522 14.5386 127.665 14.0051L125.733 13.4875ZM126.251 11.5556L125.733 13.4875L127.665 14.0051L128.183 12.0733L126.251 11.5556Z" fill="#E7E5EF"/>
<path d="M38.1807 169.037C38.5713 168.647 38.5713 168.013 38.1807 167.623C37.7902 167.232 37.1571 167.232 36.7665 167.623L38.1807 169.037ZM35.3523 169.037C34.9618 169.428 34.9618 170.061 35.3523 170.451C35.7428 170.842 36.376 170.842 36.7665 170.451L35.3523 169.037ZM36.7665 167.623L35.3523 169.037L36.7665 170.451L38.1807 169.037L36.7665 167.623Z" fill="#E7E5EF"/>
<path d="M170.241 36.9473C170.632 36.5568 170.632 35.9237 170.241 35.5331C169.851 35.1426 169.218 35.1426 168.827 35.5331L170.241 36.9473ZM167.413 36.9473C167.022 37.3379 167.022 37.971 167.413 38.3616C167.803 38.7521 168.437 38.7521 168.827 38.3616L167.413 36.9473ZM168.827 35.5331L167.413 36.9473L168.827 38.3616L170.241 36.9473L168.827 35.5331Z" fill="#E7E5EF"/>
<path d="M13.8155 127.88C14.3489 127.737 14.6655 127.189 14.5226 126.655C14.3796 126.122 13.8313 125.805 13.2978 125.948L13.8155 127.88ZM11.366 126.466C10.8325 126.609 10.5159 127.157 10.6589 127.691C10.8018 128.224 11.3501 128.541 11.8836 128.398L11.366 126.466ZM13.2978 125.948L11.366 126.466L11.8836 128.398L13.8155 127.88L13.2978 125.948Z" fill="#E7E5EF"/>
<path d="M194.228 79.5187C194.761 79.3757 195.078 78.8274 194.935 78.2939C194.792 77.7604 194.243 77.4439 193.71 77.5868L194.228 79.5187ZM191.778 78.1044C191.245 78.2474 190.928 78.7957 191.071 79.3292C191.214 79.8627 191.762 80.1792 192.296 80.0363L191.778 78.1044ZM193.71 77.5868L191.778 78.1044L192.296 80.0363L194.228 79.5187L193.71 77.5868Z" fill="#E7E5EF"/>
<path d="M13.292 80.0558C13.8254 80.1987 14.3738 79.8821 14.5167 79.3487C14.6596 78.8152 14.3431 78.2669 13.8096 78.1239L13.292 80.0558ZM11.8777 77.6063C11.3443 77.4633 10.7959 77.7799 10.653 78.3134C10.5101 78.8469 10.8266 79.3952 11.3601 79.5381L11.8777 77.6063ZM13.8096 78.1239L11.8777 77.6063L11.3601 79.5381L13.292 80.0558L13.8096 78.1239Z" fill="#E7E5EF"/>
<path d="M193.715 128.38C194.248 128.523 194.797 128.206 194.94 127.673C195.083 127.139 194.766 126.591 194.232 126.448L193.715 128.38ZM192.301 125.93C191.767 125.788 191.219 126.104 191.076 126.638C190.933 127.171 191.249 127.719 191.783 127.862L192.301 125.93ZM194.232 126.448L192.301 125.93L191.783 127.862L193.715 128.38L194.232 126.448Z" fill="#E7E5EF"/>
<path d="M36.7519 38.377C37.1424 38.7676 37.7756 38.7676 38.1661 38.377C38.5566 37.9865 38.5566 37.3533 38.1661 36.9628L36.7519 38.377ZM36.7519 35.5486C36.3614 35.1581 35.7282 35.1581 35.3377 35.5486C34.9471 35.9391 34.9471 36.5723 35.3377 36.9628L36.7519 35.5486ZM38.1661 36.9628L36.7519 35.5486L35.3377 36.9628L36.7519 38.377L38.1661 36.9628Z" fill="#E7E5EF"/>
<path d="M168.841 170.438C169.231 170.828 169.864 170.828 170.255 170.438C170.645 170.047 170.645 169.414 170.255 169.023L168.841 170.438ZM168.841 167.609C168.45 167.219 167.817 167.219 167.427 167.609C167.036 168 167.036 168.633 167.427 169.023L168.841 167.609ZM170.255 169.023L168.841 167.609L167.427 169.023L168.841 170.438L170.255 169.023Z" fill="#E7E5EF"/>
<path d="M115.857 194.461C115.785 193.914 115.282 193.528 114.735 193.6C114.187 193.672 113.802 194.175 113.874 194.722L115.857 194.461ZM114.135 196.705C114.207 197.253 114.709 197.638 115.257 197.566C115.804 197.494 116.19 196.992 116.118 196.444L114.135 196.705ZM113.874 194.722L114.135 196.705L116.118 196.444L115.857 194.461L113.874 194.722Z" fill="#E7E5EF"/>
<path d="M91.4573 9.27963C91.3852 8.73207 90.8829 8.34662 90.3353 8.41871C89.7877 8.4908 89.4023 8.99312 89.4744 9.54068L91.4573 9.27963ZM89.7354 11.5236C89.8075 12.0711 90.3098 12.4566 90.8574 12.3845C91.405 12.3124 91.7904 11.8101 91.7183 11.2625L89.7354 11.5236ZM89.4744 9.54068L89.7354 11.5236L91.7183 11.2625L91.4573 9.27963L89.4744 9.54068Z" fill="#E7E5EF"/>
<path d="M68.3721 188.736C68.5835 188.226 68.3412 187.641 67.8309 187.43C67.3207 187.218 66.7357 187.461 66.5244 187.971L68.3721 188.736ZM65.759 189.819C65.5476 190.329 65.7899 190.914 66.3002 191.125C66.8104 191.337 67.3954 191.094 67.6068 190.584L65.759 189.819ZM66.5244 187.971L65.759 189.819L67.6068 190.584L68.3721 188.736L66.5244 187.971Z" fill="#E7E5EF"/>
<path d="M139.832 16.1639C140.043 15.6537 139.801 15.0687 139.291 14.8574C138.781 14.646 138.196 14.8883 137.984 15.3986L139.832 16.1639ZM137.219 17.2463C137.008 17.7566 137.25 18.3415 137.76 18.5529C138.27 18.7642 138.855 18.5219 139.067 18.0117L137.219 17.2463ZM137.984 15.3986L137.219 17.2463L139.067 18.0117L139.832 16.1639L137.984 15.3986Z" fill="#E7E5EF"/>
<path d="M30.1127 160.036C30.5508 159.699 30.6335 159.072 30.2973 158.633C29.961 158.195 29.3333 158.113 28.8951 158.449L30.1127 160.036ZM27.3084 159.666C26.8703 160.003 26.7876 160.63 27.1238 161.068C27.4601 161.507 28.0878 161.589 28.526 161.253L27.3084 159.666ZM28.8951 158.449L27.3084 159.666L28.526 161.253L30.1127 160.036L28.8951 158.449Z" fill="#E7E5EF"/>
<path d="M178.285 46.3148C178.723 45.9786 178.805 45.3509 178.469 44.9127C178.133 44.4746 177.505 44.3919 177.067 44.7281L178.285 46.3148ZM175.48 45.9457C175.042 46.2819 174.96 46.9096 175.296 47.3478C175.632 47.7859 176.26 47.8686 176.698 47.5324L175.48 45.9457ZM177.067 44.7281L175.48 45.9457L176.698 47.5324L178.285 46.3148L177.067 44.7281Z" fill="#E7E5EF"/>
<path d="M11.3268 116.054C11.8744 115.982 12.2598 115.48 12.1877 114.932C12.1156 114.384 11.6133 113.999 11.0658 114.071L11.3268 116.054ZM9.08287 114.332C8.53531 114.404 8.14987 114.907 8.22195 115.454C8.29404 116.002 8.79637 116.387 9.34393 116.315L9.08287 114.332ZM11.0658 114.071L9.08287 114.332L9.34393 116.315L11.3268 116.054L11.0658 114.071Z" fill="#E7E5EF"/>
<path d="M196.508 91.6536C197.056 91.5815 197.441 91.0791 197.369 90.5316C197.297 89.984 196.795 89.5986 196.247 89.6707L196.508 91.6536ZM194.265 89.9317C193.717 90.0038 193.332 90.5061 193.404 91.0537C193.476 91.6012 193.978 91.9867 194.526 91.9146L194.265 89.9317ZM196.247 89.6707L194.265 89.9317L194.526 91.9146L196.508 91.6536L196.247 89.6707Z" fill="#E7E5EF"/>
<path d="M17.0519 68.5704C17.5621 68.7817 18.1471 68.5394 18.3584 68.0292C18.5698 67.5189 18.3275 66.934 17.8173 66.7226L17.0519 68.5704ZM15.9695 65.9572C15.4593 65.7459 14.8743 65.9882 14.6629 66.4984C14.4516 67.0087 14.6939 67.5936 15.2041 67.805L15.9695 65.9572ZM17.8173 66.7226L15.9695 65.9572L15.2041 67.805L17.0519 68.5704L17.8173 66.7226Z" fill="#E7E5EF"/>
<path d="M189.623 140.029C190.133 140.241 190.718 139.998 190.93 139.488C191.141 138.978 190.899 138.393 190.389 138.182L189.623 140.029ZM188.541 137.416C188.031 137.205 187.446 137.447 187.234 137.957C187.023 138.468 187.265 139.053 187.775 139.264L188.541 137.416ZM190.389 138.182L188.541 137.416L187.775 139.264L189.623 140.029L190.389 138.182Z" fill="#E7E5EF"/>
<path d="M45.7506 30.3099C46.0868 30.7481 46.7145 30.8307 47.1527 30.4945C47.5909 30.1583 47.6735 29.5306 47.3373 29.0924L45.7506 30.3099ZM46.1198 27.5057C45.7836 27.0675 45.1558 26.9849 44.7177 27.3211C44.2795 27.6573 44.1969 28.2851 44.5331 28.7232L46.1198 27.5057ZM47.3373 29.0924L46.1198 27.5057L44.5331 28.7232L45.7506 30.3099L47.3373 29.0924Z" fill="#E7E5EF"/>
<path d="M159.472 178.482C159.808 178.92 160.436 179.003 160.874 178.666C161.313 178.33 161.395 177.702 161.059 177.264L159.472 178.482ZM159.841 175.678C159.505 175.239 158.877 175.157 158.439 175.493C158.001 175.829 157.919 176.457 158.255 176.895L159.841 175.678ZM161.059 177.264L159.841 175.678L158.255 176.895L159.472 178.482L161.059 177.264Z" fill="#E7E5EF"/>
<path d="M139.086 187.965C138.875 187.455 138.29 187.212 137.779 187.424C137.269 187.635 137.027 188.22 137.238 188.73L139.086 187.965ZM138.004 190.578C138.215 191.088 138.8 191.331 139.31 191.119C139.82 190.908 140.063 190.323 139.851 189.813L138.004 190.578ZM137.238 188.73L138.004 190.578L139.851 189.813L139.086 187.965L137.238 188.73Z" fill="#E7E5EF"/>
<path d="M67.5889 15.4083C67.3776 14.8981 66.7926 14.6558 66.2824 14.8671C65.7721 15.0785 65.5298 15.6635 65.7412 16.1737L67.5889 15.4083ZM66.5065 18.0215C66.7179 18.5317 67.3028 18.774 67.8131 18.5627C68.3233 18.3513 68.5656 17.7663 68.3543 17.2561L66.5065 18.0215ZM65.7412 16.1737L66.5065 18.0215L68.3543 17.2561L67.5889 15.4083L65.7412 16.1737Z" fill="#E7E5EF"/>
<path d="M91.7375 194.726C91.8096 194.179 91.4242 193.676 90.8766 193.604C90.3291 193.532 89.8267 193.918 89.7546 194.465L91.7375 194.726ZM89.4936 196.448C89.4215 196.996 89.807 197.498 90.3545 197.57C90.9021 197.642 91.4044 197.257 91.4765 196.709L89.4936 196.448ZM89.7546 194.465L89.4936 196.448L91.4765 196.709L91.7375 194.726L89.7546 194.465Z" fill="#E7E5EF"/>
<path d="M116.098 9.53873C116.17 8.99117 115.785 8.48885 115.237 8.41676C114.689 8.34467 114.187 8.73012 114.115 9.27768L116.098 9.53873ZM113.854 11.2606C113.782 11.8081 114.167 12.3105 114.715 12.3825C115.262 12.4546 115.765 12.0692 115.837 11.5216L113.854 11.2606ZM114.115 9.27768L113.854 11.2606L115.837 11.5216L116.098 9.53873L114.115 9.27768Z" fill="#E7E5EF"/>
<path d="M47.3539 176.908C47.6901 176.469 47.6075 175.842 47.1693 175.505C46.7312 175.169 46.1034 175.252 45.7672 175.69L47.3539 176.908ZM44.5497 177.277C44.2135 177.715 44.2961 178.343 44.7343 178.679C45.1724 179.015 45.8002 178.932 46.1364 178.494L44.5497 177.277ZM45.7672 175.69L44.5497 177.277L46.1364 178.494L47.3539 176.908L45.7672 175.69Z" fill="#E7E5EF"/>
<path d="M161.043 28.7103C161.38 28.2722 161.297 27.6444 160.859 27.3082C160.421 26.972 159.793 27.0546 159.457 27.4928L161.043 28.7103ZM158.239 29.0795C157.903 29.5177 157.986 30.1454 158.424 30.4816C158.862 30.8178 159.49 30.7352 159.826 30.297L158.239 29.0795ZM159.457 27.4928L158.239 29.0795L159.826 30.297L161.043 28.7103L159.457 27.4928Z" fill="#E7E5EF"/>
<path d="M17.8251 139.281C18.3353 139.07 18.5776 138.485 18.3663 137.975C18.1549 137.464 17.5699 137.222 17.0597 137.434L17.8251 139.281ZM15.2119 138.199C14.7017 138.41 14.4594 138.995 14.6707 139.505C14.8821 140.016 15.4671 140.258 15.9773 140.047L15.2119 138.199ZM17.0597 137.434L15.2119 138.199L15.9773 140.047L17.8251 139.281L17.0597 137.434Z" fill="#E7E5EF"/>
<path d="M190.382 67.7852C190.892 67.5739 191.134 66.9889 190.923 66.4786C190.712 65.9684 190.127 65.7261 189.616 65.9374L190.382 67.7852ZM187.769 66.7028C187.258 66.9142 187.016 67.4991 187.227 68.0094C187.439 68.5196 188.024 68.7619 188.534 68.5506L187.769 66.7028ZM189.616 65.9374L187.769 66.7028L188.534 68.5506L190.382 67.7852L189.616 65.9374Z" fill="#E7E5EF"/>
<path d="M11.0638 91.9368C11.6114 92.0088 12.1137 91.6234 12.1858 91.0758C12.2579 90.5283 11.8724 90.026 11.3249 89.9539L11.0638 91.9368ZM9.34197 89.6928C8.79441 89.6207 8.29209 90.0062 8.22 90.5537C8.14791 91.1013 8.53336 91.6036 9.08092 91.6757L9.34197 89.6928ZM11.3249 89.9539L9.34197 89.6928L9.08092 91.6757L11.0638 91.9368L11.3249 89.9539Z" fill="#E7E5EF"/>
<path d="M196.25 116.296C196.798 116.368 197.3 115.983 197.372 115.435C197.444 114.888 197.059 114.385 196.511 114.313L196.25 116.296ZM194.528 114.052C193.981 113.98 193.479 114.366 193.407 114.913C193.334 115.461 193.72 115.963 194.267 116.035L194.528 114.052ZM196.511 114.313L194.528 114.052L194.267 116.035L196.25 116.296L196.511 114.313Z" fill="#E7E5EF"/>
<path d="M28.8824 47.5512C29.3206 47.8874 29.9484 47.8047 30.2846 47.3666C30.6208 46.9284 30.5381 46.3007 30.1 45.9645L28.8824 47.5512ZM28.5133 44.7469C28.0751 44.4107 27.4474 44.4934 27.1112 44.9315C26.7749 45.3697 26.8576 45.9974 27.2957 46.3336L28.5133 44.7469ZM30.1 45.9645L28.5133 44.7469L27.2957 46.3336L28.8824 47.5512L30.1 45.9645Z" fill="#E7E5EF"/>
<path d="M177.079 161.241C177.517 161.577 178.145 161.494 178.481 161.056C178.817 160.618 178.734 159.99 178.296 159.654L177.079 161.241ZM176.71 158.436C176.271 158.1 175.644 158.183 175.307 158.621C174.971 159.059 175.054 159.687 175.492 160.023L176.71 158.436ZM178.296 159.654L176.71 158.436L175.492 160.023L177.079 161.241L178.296 159.654Z" fill="#E7E5EF"/>
<path d="M98.0256 174.545H96.396L94.0462 176.055V177.625L96.2575 176.212H96.3129V184H98.0256V174.545ZM100.426 184H106.908V182.569H102.79V182.504L104.419 180.847C106.257 179.083 106.765 178.225 106.765 177.158C106.765 175.575 105.477 174.416 103.575 174.416C101.7 174.416 100.371 175.58 100.371 177.375H102C102 176.411 102.61 175.806 103.551 175.806C104.452 175.806 105.121 176.355 105.121 177.246C105.121 178.036 104.641 178.599 103.708 179.545L100.426 182.763V184Z" fill="black"/>
<path d="M93.0044 32H99.9846V30.4588H95.5499V30.3892L97.3049 28.6044C99.2836 26.7053 99.8304 25.7805 99.8304 24.6321C99.8304 22.9268 98.4434 21.679 96.3951 21.679C94.3766 21.679 92.9448 22.9318 92.9448 24.8658H94.6998C94.6998 23.8267 95.356 23.1754 96.3702 23.1754C97.3397 23.1754 98.0605 23.767 98.0605 24.7266C98.0605 25.5767 97.5435 26.1832 96.5392 27.2024L93.0044 30.6676V32ZM101.297 30.1108H106.154V32H107.914V30.1108H109.217V28.5945H107.914V21.8182H105.617L101.297 28.6442V30.1108ZM106.174 28.5945H103.186V28.5149L106.095 23.9062H106.174V28.5945Z" fill="black"/>
<path d="M26.1643 98.8182H24.4094L21.8788 100.444V102.134L24.2602 100.613H24.3199V109H26.1643V98.8182ZM32.3689 109.139C34.5713 109.139 36.1473 107.926 36.1523 106.271C36.1473 104.998 35.2077 103.934 34.0244 103.735V103.665C35.0535 103.437 35.7694 102.512 35.7744 101.408C35.7694 99.8423 34.3277 98.679 32.3689 98.679C30.3952 98.679 28.9534 99.8374 28.9584 101.408C28.9534 102.512 29.6594 103.437 30.7084 103.665V103.735C29.5052 103.934 28.5756 104.998 28.5805 106.271C28.5756 107.926 30.1466 109.139 32.3689 109.139ZM32.3689 107.717C31.2155 107.717 30.4697 107.081 30.4797 106.141C30.4697 105.167 31.2702 104.476 32.3689 104.476C33.4527 104.476 34.2481 105.172 34.2581 106.141C34.2481 107.081 33.5074 107.717 32.3689 107.717ZM32.3689 103.079C31.4243 103.079 30.7481 102.467 30.7581 101.582C30.7481 100.707 31.4044 100.121 32.3689 100.121C33.3184 100.121 33.9697 100.707 33.9797 101.582C33.9697 102.472 33.2986 103.079 32.3689 103.079Z" fill="black"/>
<path d="M31.3882 72H38.3683V70.4588H33.9337V70.3892L35.6887 68.6044C37.6673 66.7053 38.2142 65.7805 38.2142 64.6321C38.2142 62.9268 36.8271 61.679 34.7789 61.679C32.7604 61.679 31.3286 62.9318 31.3286 64.8658H33.0835C33.0835 63.8267 33.7398 63.1754 34.754 63.1754C35.7235 63.1754 36.4443 63.767 36.4443 64.7266C36.4443 65.5767 35.9273 66.1832 34.923 67.2024L31.3882 70.6676V72ZM43.847 72.1939C46.303 72.1989 47.7696 70.2599 47.7696 66.919C47.7696 63.598 46.2931 61.679 43.847 61.679C41.401 61.679 39.9294 63.593 39.9244 66.919C39.9244 70.255 41.3911 72.1939 43.847 72.1939ZM43.847 70.6378C42.5793 70.6378 41.7838 69.3651 41.7888 66.919C41.7938 64.4929 42.5843 63.2152 43.847 63.2152C45.1148 63.2152 45.9053 64.4929 45.9102 66.919C45.9102 69.3651 45.1198 70.6378 43.847 70.6378Z" fill="#E7E5EF"/>
<path d="M160.059 71.1108H164.916V73H166.676V71.1108H167.979V69.5945H166.676V62.8182H164.379L160.059 69.6442V71.1108ZM164.936 69.5945H161.948V69.5149L164.856 64.9062H164.936V69.5945Z" fill="#E7E5EF"/>
<path d="M165.006 147.139C167.208 147.139 168.784 145.926 168.789 144.271C168.784 142.998 167.844 141.934 166.661 141.735V141.665C167.69 141.437 168.406 140.512 168.411 139.408C168.406 137.842 166.964 136.679 165.006 136.679C163.032 136.679 161.59 137.837 161.595 139.408C161.59 140.512 162.296 141.437 163.345 141.665V141.735C162.142 141.934 161.212 142.998 161.217 144.271C161.212 145.926 162.783 147.139 165.006 147.139ZM165.006 145.717C163.852 145.717 163.106 145.081 163.116 144.141C163.106 143.167 163.907 142.476 165.006 142.476C166.089 142.476 166.885 143.172 166.895 144.141C166.885 145.081 166.144 145.717 165.006 145.717ZM165.006 141.079C164.061 141.079 163.385 140.467 163.395 139.582C163.385 138.707 164.041 138.121 165.006 138.121C165.955 138.121 166.606 138.707 166.616 139.582C166.606 140.472 165.935 141.079 165.006 141.079Z" fill="#E7E5EF"/>
<path d="M34.1438 136.818H32.3888L29.8583 138.444V140.134L32.2397 138.613H32.2994V147H34.1438V136.818ZM40.4577 147.139C42.6552 147.154 44.1317 145.643 44.1268 143.629C44.1317 141.705 42.7596 140.313 40.9748 140.313C39.881 140.313 38.9165 140.845 38.4293 141.72H38.3597C38.3647 139.577 39.1502 138.275 40.5621 138.275C41.4371 138.275 42.0288 138.782 42.2177 139.562H44.0323C43.8136 137.917 42.4862 136.679 40.5621 136.679C38.1161 136.679 36.57 138.717 36.57 142.197C36.565 145.931 38.5039 147.129 40.4577 147.139ZM40.4478 145.648C39.359 145.648 38.5636 144.748 38.5586 143.684C38.5685 142.615 39.3938 141.72 40.4727 141.72C41.5515 141.72 42.342 142.575 42.337 143.669C42.342 144.783 41.5266 145.648 40.4478 145.648Z" fill="#E7E5EF"/>
<path d="M61.5208 161.818H59.7658L57.2353 163.444V165.134L59.6167 163.613H59.6763V172H61.5208V161.818ZM63.9221 170.111H68.7793V172H70.5392V170.111H71.8418V168.594H70.5392V161.818H68.2424L63.9221 168.644V170.111ZM68.7992 168.594H65.8113V168.515L68.7196 163.906H68.7992V168.594Z" fill="#E7E5EF"/>
<path d="M135.514 161.818H133.759L131.228 163.444V165.134L133.61 163.613H133.669V172H135.514V161.818ZM141.863 172.194C144.319 172.199 145.785 170.26 145.785 166.919C145.785 163.598 144.309 161.679 141.863 161.679C139.417 161.679 137.945 163.593 137.94 166.919C137.94 170.255 139.407 172.194 141.863 172.194ZM141.863 170.638C140.595 170.638 139.799 169.365 139.804 166.919C139.809 164.493 140.6 163.215 141.863 163.215C143.13 163.215 143.921 164.493 143.926 166.919C143.926 169.365 143.135 170.638 141.863 170.638Z" fill="#E7E5EF"/>
<path d="M57.2095 46H64.1896V44.4588H59.755V44.3892L61.5099 42.6044C63.4886 40.7053 64.0355 39.7805 64.0355 38.6321C64.0355 36.9268 62.6484 35.679 60.6001 35.679C58.5817 35.679 57.1499 36.9318 57.1499 38.8658H58.9048C58.9048 37.8267 59.5611 37.1754 60.5753 37.1754C61.5447 37.1754 62.2656 37.767 62.2656 38.7266C62.2656 39.5767 61.7486 40.1832 60.7443 41.2024L57.2095 44.6676V46ZM65.9048 46H72.8849V44.4588H68.4503V44.3892L70.2053 42.6044C72.1839 40.7053 72.7308 39.7805 72.7308 38.6321C72.7308 36.9268 71.3438 35.679 69.2955 35.679C67.277 35.679 65.8452 36.9318 65.8452 38.8658H67.6001C67.6001 37.8267 68.2564 37.1754 69.2706 37.1754C70.2401 37.1754 70.9609 37.767 70.9609 38.7266C70.9609 39.5767 70.4439 40.1832 69.4396 41.2024L65.9048 44.6676V46Z" fill="#E7E5EF"/>
<path d="M174.094 109.139C176.292 109.154 177.768 107.643 177.763 105.629C177.768 103.705 176.396 102.313 174.612 102.313C173.518 102.313 172.553 102.845 172.066 103.72H171.996C172.001 101.577 172.787 100.275 174.199 100.275C175.074 100.275 175.665 100.782 175.854 101.562H177.669C177.45 99.9169 176.123 98.679 174.199 98.679C171.753 98.679 170.207 100.717 170.207 104.197C170.202 107.931 172.141 109.129 174.094 109.139ZM174.085 107.648C172.996 107.648 172.2 106.748 172.195 105.684C172.205 104.615 173.031 103.72 174.109 103.72C175.188 103.72 175.979 104.575 175.974 105.669C175.979 106.783 175.163 107.648 174.085 107.648Z" fill="black"/>
<path d="M136.057 46H143.037V44.4588H138.603V44.3892L140.358 42.6044C142.336 40.7053 142.883 39.7805 142.883 38.6321C142.883 36.9268 141.496 35.679 139.448 35.679C137.429 35.679 135.998 36.9318 135.998 38.8658H137.752C137.752 37.8267 138.409 37.1754 139.423 37.1754C140.392 37.1754 141.113 37.767 141.113 38.7266C141.113 39.5767 140.596 40.1832 139.592 41.2024L136.057 44.6676V46Z" fill="#E7E5EF"/>
<defs>
<linearGradient id="paint0_linear_479_33418" x1="109.5" y1="67" x2="108.986" y2="141" gradientUnits="userSpaceOnUse">
<stop offset="0.161632" stop-color="white"/>
<stop offset="0.3125" stop-color="white" stop-opacity="0.8"/>
<stop offset="0.40625" stop-color="white" stop-opacity="0"/>
<stop offset="0.640625" stop-color="white" stop-opacity="0.0674777"/>
<stop offset="0.672838" stop-color="white" stop-opacity="0.8"/>
<stop offset="0.87721" stop-color="white"/>
</linearGradient>
</defs>
</svg>
