<svg width="211" height="55" viewBox="0 0 211 55" fill="none" xmlns="http://www.w3.org/2000/svg">
<g clip-path="url(#clip0_1304_12639)">
<path d="M63.275 38.5463V22.1739H57.2349V17.3301H74.7304V22.1739H68.7293V38.5463H63.275Z" fill="white"/>
<path d="M84.2336 33.456H95.5458V38.4604H78.7402V17.2441H95.5068V22.2486H84.2336V25.3377H95.3245V30.3668H84.2336V33.456Z" fill="white"/>
<path d="M118.925 17.2441V38.4604H113.458V22.2486H105.192V38.4604H99.7246V17.2441H118.925Z" fill="white"/>
<path d="M134.013 30.1572L132.294 25.5605L130.628 30.046L127.217 38.4732H121.373L130.316 17.0098H134.221L143.515 38.4732H137.345L134.013 30.1572Z" fill="white"/>
<path d="M153.434 25.5601H161.245C159.357 20.4321 151.117 20.6174 149.659 26.042H144.062C144.437 23.451 145.81 21.0838 147.916 19.3974C150.022 17.711 152.711 16.825 155.465 16.9105C157.01 16.8612 158.549 17.1074 159.991 17.6344C161.433 18.1615 162.749 18.9586 163.86 19.9784C164.971 20.9981 165.855 22.2197 166.458 23.5703C167.062 24.9208 167.373 26.3729 167.373 27.8399C167.373 29.3069 167.062 30.7589 166.458 32.1095C165.855 33.4601 164.971 34.6816 163.86 35.7014C162.749 36.7211 161.433 37.5183 159.991 38.0453C158.549 38.5724 157.01 38.8186 155.465 38.7693C152.697 38.8446 149.997 37.9444 147.887 36.2423C145.776 34.5402 144.404 32.1566 144.036 29.5513H149.529C150.935 35.1611 159.461 35.3341 161.245 30.0085H153.434V25.5601Z" fill="white"/>
<path d="M188.27 17.5531L180.342 27.7967L188.999 38.1886V38.4604H182.229L175.565 30.2433V38.4604H170.097V17.2441H175.565V25.486L181.761 17.2441H188.27V17.5531Z" fill="white"/>
<path d="M199.542 16.9106C201.818 16.9179 204.04 17.5646 205.928 18.769C207.817 19.9735 209.287 21.6817 210.154 23.6784C211.021 25.6751 211.246 27.8708 210.801 29.9887C210.355 32.1065 209.258 34.0516 207.65 35.5788C206.041 37.1059 203.992 38.1466 201.76 38.5698C199.529 38.9929 197.216 38.7795 195.113 37.9564C193.009 37.1333 191.21 35.7374 189.941 33.9447C188.672 32.1521 187.991 30.0429 187.983 27.8833C187.969 26.4386 188.259 25.0059 188.835 23.6687C189.411 22.3314 190.261 21.1166 191.338 20.095C192.414 19.0735 193.694 18.2657 195.102 17.719C196.511 17.1722 198.021 16.8974 199.542 16.9106ZM205.648 27.8833C205.648 26.343 205.003 24.8658 203.856 23.7767C202.708 22.6875 201.152 22.0757 199.529 22.0757C197.907 22.0757 196.351 22.6875 195.203 23.7767C194.056 24.8658 193.411 26.343 193.411 27.8833C193.411 35.878 205.648 35.8285 205.648 27.8833Z" fill="white"/>
<path d="M14.9152 27.4749C14.9191 25.3382 15.6976 23.2678 17.1199 21.6117C18.5422 19.9556 20.5217 18.8146 22.7257 18.3804V5.78906C22.2441 5.78906 21.7494 6.66638 21.424 8.45809L21.0725 10.188C20.5258 12.301 19.4193 13.4007 18.0525 13.376C17.4597 13.3074 16.888 13.1239 16.373 12.8369C15.858 12.55 15.4106 12.1657 15.0584 11.7079L13.8348 10.3734C12.7674 9.21184 11.9603 8.64343 11.5437 8.64343C11.1271 8.64343 10.8277 9.65667 11.5437 11.6461L12.0904 13.3266C12.3215 13.9465 12.4488 14.5969 12.4679 15.2542C12.4549 17.4043 10.6325 18.3681 7.76863 17.4413L5.99825 16.91C2.43146 15.6743 1.78058 16.6999 4.65745 19.0848L6.06334 20.2463C7.63846 21.5931 8.15916 22.9771 7.63846 24.0645C7.46198 24.3946 7.21348 24.6852 6.90948 24.9171L6.7793 25.0036H6.68818C6.03474 25.3862 5.31001 25.6463 4.55331 25.7697L2.73086 26.1157C0.843322 26.4616 -0.0939384 26.9312 -0.0809209 27.3513C-0.0679034 27.7714 0.843322 28.2781 2.73086 28.587L4.55331 28.933C5.3091 29.0525 6.03377 29.3084 6.68818 29.6867H6.7793L6.90948 29.7856C7.21675 30.0143 7.4659 30.3057 7.63846 30.6382C8.19821 31.7255 7.71656 33.1095 6.10239 34.4563L4.6965 35.6179C1.81963 38.0027 2.43146 39.0036 5.99825 37.8297L7.76863 37.2613C10.6325 36.3222 12.4549 37.2613 12.4679 39.4484C12.4763 40.1887 12.3486 40.9246 12.0904 41.6232L11.5437 43.3407C10.7627 45.3301 10.8147 46.3681 11.5437 46.3434C12.2727 46.3187 12.8455 45.7873 13.8999 44.6258L15.1235 43.2913C15.4694 42.8415 15.9068 42.4621 16.4099 42.1755C16.913 41.889 17.4715 41.7012 18.0525 41.6232C19.3542 41.6232 20.5128 42.7105 20.9554 44.8112L21.3068 46.5411C21.6843 48.3328 22.179 49.2225 22.6086 49.2225V36.5817C20.4251 36.1228 18.4722 34.9698 17.0731 33.3137C15.6741 31.6576 14.9128 29.5977 14.9152 27.4749Z" fill="#E31F26"/>
<path d="M24.7173 20.2347C23.6882 20.1943 22.6611 20.3519 21.6977 20.6979C20.7344 21.044 19.8547 21.5713 19.1115 22.2482C18.3683 22.9251 17.7769 23.7377 17.373 24.6371C16.969 25.5365 16.7607 26.5041 16.7607 27.4818C16.7607 28.4596 16.969 29.4272 17.373 30.3266C17.7769 31.226 18.3683 32.0385 19.1115 32.7155C19.8547 33.3924 20.7344 33.9197 21.6977 34.2657C22.6611 34.6118 23.6882 34.7693 24.7173 34.729V20.2347Z" fill="#E31F26"/>
<path d="M24.7173 20.2347C25.7464 20.1943 26.7735 20.3519 27.7369 20.6979C28.7002 21.044 29.5799 21.5713 30.3231 22.2482C31.0663 22.9251 31.6577 23.7377 32.0617 24.6371C32.4656 25.5365 32.6739 26.5041 32.6739 27.4818C32.6739 28.4596 32.4656 29.4272 32.0617 30.3266C31.6577 31.226 31.0663 32.0385 30.3231 32.7155C29.5799 33.3924 28.7002 33.9197 27.7369 34.2657C26.7735 34.6118 25.7464 34.7693 24.7173 34.729V20.2347Z" fill="white"/>
<path d="M26.5397 18.3434V12.9065L30.8355 8.82878C30.9237 8.74914 30.994 8.6533 31.042 8.5471C31.09 8.44089 31.1147 8.32652 31.1147 8.21095C31.1147 8.09538 31.09 7.98102 31.042 7.87481C30.994 7.7686 30.9237 7.67277 30.8355 7.59312C30.7526 7.50776 30.652 7.43962 30.54 7.39302C30.4279 7.34641 30.307 7.32235 30.1846 7.32235C30.0623 7.32235 29.9413 7.34641 29.8293 7.39302C29.7173 7.43962 29.6167 7.50776 29.5338 7.59312L26.5397 10.4722V6.65402C26.5397 6.42462 26.4437 6.20462 26.2728 6.0424C26.102 5.88019 25.8702 5.78906 25.6285 5.78906C25.3868 5.78906 25.1551 5.88019 24.9842 6.0424C24.8133 6.20462 24.7173 6.42462 24.7173 6.65402V18.1457C25.3301 18.1544 25.9406 18.2207 26.5397 18.3434Z" fill="white"/>
<path d="M44.7515 16.9098C44.8731 16.9171 44.995 16.8997 45.109 16.8588C45.223 16.8178 45.3265 16.7544 45.4127 16.6726C45.4989 16.5908 45.5658 16.4925 45.6089 16.3843C45.652 16.276 45.6703 16.1603 45.6627 16.0449C45.6723 15.9284 45.6554 15.8114 45.6131 15.7016C45.5709 15.5919 45.5043 15.4921 45.4179 15.4089C45.3315 15.3257 45.2273 15.2611 45.1123 15.2195C44.9973 15.1778 44.8743 15.1601 44.7515 15.1676H39.9089L42.5124 12.6962C42.6851 12.5324 42.7821 12.3101 42.7821 12.0784C42.7821 11.8467 42.6851 11.6244 42.5124 11.4606C42.3398 11.2967 42.1057 11.2047 41.8616 11.2047C41.6174 11.2047 41.3833 11.2967 41.2107 11.4606L38.6072 13.9319V9.3476C38.5804 9.13443 38.4722 8.93799 38.3031 8.79546C38.1339 8.65293 37.9156 8.57422 37.6895 8.57422C37.4633 8.57422 37.245 8.65293 37.0759 8.79546C36.9067 8.93799 36.7985 9.13443 36.7717 9.3476V15.6742L34.1682 18.1455V10.1261C34.1414 9.9129 34.0332 9.71645 33.8641 9.57393C33.695 9.4314 33.4767 9.35268 33.2505 9.35268C33.0243 9.35268 32.806 9.4314 32.6369 9.57393C32.4678 9.71645 32.3596 9.9129 32.3328 10.1261V19.8384L31.3955 20.7404C31.8312 21.1377 32.2277 21.572 32.5801 22.0378L33.6215 21.0617H43.8532C44.0778 21.0362 44.2848 20.9335 44.4349 20.773C44.5851 20.6124 44.668 20.4052 44.668 20.1905C44.668 19.9758 44.5851 19.7686 44.4349 19.6081C44.2848 19.4475 44.0778 19.3448 43.8532 19.3194H35.5221L38.1256 16.8481L44.7515 16.9098Z" fill="white"/>
<path d="M47.5891 26.6096H43.5667L46.5867 23.7429C46.6767 23.6642 46.7484 23.5687 46.7975 23.4623C46.8466 23.356 46.872 23.2412 46.872 23.1251C46.872 23.009 46.8466 22.8941 46.7975 22.7878C46.7484 22.6814 46.6767 22.5859 46.5867 22.5072C46.5028 22.4235 46.4019 22.3568 46.29 22.3112C46.1781 22.2657 46.0576 22.2422 45.9359 22.2422C45.8141 22.2422 45.6936 22.2657 45.5817 22.3112C45.4698 22.3568 45.3689 22.4235 45.285 22.5072L40.9892 26.5849H34.4805C34.4805 26.8691 34.4805 27.1657 34.4805 27.4499C34.4805 27.7341 34.4805 28.0306 34.4805 28.3272H40.9892L45.285 32.4049C45.4576 32.5687 45.6917 32.6608 45.9359 32.6608C46.18 32.6608 46.4141 32.5687 46.5867 32.4049C46.7593 32.241 46.8563 32.0188 46.8563 31.787C46.8563 31.5553 46.7593 31.3331 46.5867 31.1692L43.5667 28.3519H47.5891C47.7114 28.3573 47.8335 28.3382 47.9475 28.2959C48.0615 28.2536 48.1649 28.1889 48.2508 28.1062C48.3368 28.0234 48.4034 27.9244 48.4464 27.8156C48.4894 27.7068 48.5077 27.5906 48.5003 27.4746C48.5079 27.3591 48.4896 27.2434 48.4465 27.1352C48.4034 27.027 48.3365 26.9287 48.2503 26.8469C48.1642 26.7651 48.0606 26.7016 47.9466 26.6607C47.8326 26.6198 47.7107 26.6024 47.5891 26.6096Z" fill="white"/>
<path d="M44.7515 38.0641H38.0865L35.483 35.5928H43.8923C44.134 35.5928 44.3658 35.5017 44.5367 35.3395C44.7075 35.1773 44.8035 34.9573 44.8035 34.7279C44.8035 34.4984 44.7075 34.2784 44.5367 34.1162C44.3658 33.954 44.134 33.8629 43.8923 33.8629H33.6736L32.6322 32.8867C32.2859 33.3576 31.8983 33.7999 31.4736 34.2089L32.4109 35.0985V44.8355C32.4377 45.0487 32.5459 45.2452 32.715 45.3877C32.8841 45.5302 33.1025 45.6089 33.3286 45.6089C33.5548 45.6089 33.7731 45.5302 33.9422 45.3877C34.1114 45.2452 34.2196 45.0487 34.2464 44.8355V36.8532L36.8499 39.3245V45.6634C36.8767 45.8766 36.9849 46.073 37.154 46.2156C37.3231 46.3581 37.5414 46.4368 37.7676 46.4368C37.9938 46.4368 38.2121 46.3581 38.3812 46.2156C38.5503 46.073 38.6585 45.8766 38.6853 45.6634V41.0174L41.2888 43.4887C41.3727 43.5724 41.4737 43.6391 41.5856 43.6847C41.6975 43.7302 41.8179 43.7537 41.9397 43.7537C42.0614 43.7537 42.1819 43.7302 42.2938 43.6847C42.4057 43.6391 42.5067 43.5724 42.5906 43.4887C42.6805 43.41 42.7523 43.3145 42.8014 43.2081C42.8505 43.1018 42.8758 42.9869 42.8758 42.8708C42.8758 42.7547 42.8505 42.6399 42.8014 42.5336C42.7523 42.4272 42.6805 42.3317 42.5906 42.253L39.9871 39.7817H44.8296C45.0713 39.7817 45.303 39.6906 45.4739 39.5284C45.6448 39.3661 45.7408 39.1461 45.7408 38.9167C45.7408 38.6873 45.6448 38.4673 45.4739 38.3051C45.303 38.1429 45.0713 38.0518 44.8296 38.0518L44.7515 38.0641Z" fill="white"/>
<path d="M26.5397 42.0548V36.6797C25.9384 36.7839 25.3286 36.8377 24.7173 36.8403V48.369C24.7173 48.4826 24.7409 48.5951 24.7866 48.7C24.8324 48.805 24.8996 48.9003 24.9842 48.9806C25.0688 49.061 25.1692 49.1247 25.2798 49.1681C25.3904 49.2116 25.5088 49.234 25.6285 49.234C25.7482 49.234 25.8667 49.2116 25.9772 49.1681C26.0878 49.1247 26.1882 49.061 26.2728 48.9806C26.3575 48.9003 26.4246 48.805 26.4704 48.7C26.5162 48.5951 26.5397 48.4826 26.5397 48.369V44.489L29.5598 47.3434C29.7324 47.5073 29.9665 47.5993 30.2107 47.5993C30.4548 47.5993 30.6889 47.5073 30.8615 47.3434C31.0342 47.1796 31.1311 46.9573 31.1311 46.7256C31.1311 46.4939 31.0342 46.2716 30.8615 46.1078L26.5397 42.0548Z" fill="white"/>
</g>
<defs>
<clipPath id="clip0_1304_12639">
<rect width="211" height="55" fill="white"/>
</clipPath>
</defs>
</svg>
