<svg viewBox="0 0 347 300" fill="none" xmlns="http://www.w3.org/2000/svg">
<rect width="110%" height="100%" rx="12" fill="white" fill-opacity="0.2"/>
<path fill-rule="evenodd" clip-rule="evenodd" d="M202.284 132.399C200.895 131.124 199.284 130.486 197.431 130.486C195.457 130.486 193.786 131.124 192.437 132.399C191.067 133.675 190.423 135.175 190.423 136.938C190.423 138.757 191.067 140.314 192.437 141.57C193.786 142.864 195.457 143.464 197.431 143.464C199.284 143.464 200.895 142.864 202.284 141.57C203.633 140.314 204.318 138.757 204.318 136.938C204.318 135.175 203.633 133.675 202.284 132.399ZM201.72 159.124C198.498 153.761 196.464 150.554 195.639 149.503C194.954 148.678 194.168 148.247 193.343 148.247C192.215 148.247 190.644 149.391 188.63 151.679C186.617 153.967 184.905 155.073 183.596 155.073C182.508 155.073 181.723 154.717 181.199 153.986L161.504 132.549C161.001 131.949 160.396 131.668 159.712 131.668C158.946 131.668 158.262 132.099 157.617 132.924L153.851 139.864C152.019 143.052 149.381 147.891 145.897 154.398C145.333 155.449 144.467 157.005 143.279 159.087C142.091 161.169 141.043 163.044 140.157 164.695C139.291 166.364 138.587 167.977 138.063 169.496H204.318C205.768 169.496 206.533 168.989 206.533 167.939C206.533 167.433 204.922 164.507 201.72 159.124Z" fill="#E7E5EF"/>
</svg>
