<svg width="18" height="16" viewBox="0 0 18 16" fill="none" xmlns="http://www.w3.org/2000/svg">
<path d="M9 3.48086C11.8425 3.48086 14.3775 5.07836 15.615 7.60586C15.1725 8.52086 14.55 9.30836 13.8075 9.94586L14.865 11.0034C15.9075 10.0809 16.7325 8.92586 17.25 7.60586C15.9525 4.31336 12.75 1.98086 9 1.98086C8.0475 1.98086 7.1325 2.13086 6.27 2.40836L7.5075 3.64586C7.995 3.54836 8.49 3.48086 9 3.48086ZM8.1975 4.33586L9.75 5.88836C10.1775 6.07586 10.5225 6.42086 10.71 6.84836L12.2625 8.40086C12.3225 8.14586 12.3675 7.87586 12.3675 7.59836C12.375 5.73836 10.86 4.23086 9 4.23086C8.7225 4.23086 8.46 4.26836 8.1975 4.33586ZM1.5075 1.88336L3.5175 3.89336C2.295 4.85336 1.3275 6.12836 0.75 7.60586C2.0475 10.8984 5.25 13.2309 9 13.2309C10.14 13.2309 11.235 13.0134 12.24 12.6159L14.805 15.1809L15.8625 14.1234L2.565 0.818359L1.5075 1.88336ZM7.1325 7.50836L9.09 9.46586C9.06 9.47336 9.03 9.48086 9 9.48086C7.965 9.48086 7.125 8.64086 7.125 7.60586C7.125 7.56836 7.1325 7.54586 7.1325 7.50836ZM4.5825 4.95836L5.895 6.27086C5.7225 6.68336 5.625 7.13336 5.625 7.60586C5.625 9.46586 7.14 10.9809 9 10.9809C9.4725 10.9809 9.9225 10.8834 10.3275 10.7109L11.0625 11.4459C10.4025 11.6259 9.7125 11.7309 9 11.7309C6.1575 11.7309 3.6225 10.1334 2.385 7.60586C2.91 6.53336 3.675 5.64836 4.5825 4.95836Z" />
</svg>
